<svg xmlns="http://www.w3.org/2000/svg" width="241" height="300" viewBox="1153 300 241 275">
	<path fill="#4267b2" d="M1386.297 475.25a11.07 10.89 0 003.191-7.655 11.112 10.93 0 00-11.111-10.93c-1.141 0-2.22.219-3.257.534-4.714-6.465-10.264-13.087-16.566-19.753 28.81-30.873 41.744-60.868 30.194-77.479-10.244-14.734-37.448-15.634-71.165-5.034-3.072-10.114-6.7-19.132-10.762-26.806a11.04 10.86 0 004.143-8.453 11.112 10.93 0 00-11.112-10.93c-2.05 0-3.947.586-5.597 1.536-6.495-6.61-13.606-10.28-21.068-10.28-18.222 0-34.395 21.75-44.529 55.347-33.98-10.525-61.356-9.496-71.546 5.366-11.44 16.687 1.692 46.592 30.703 77.278-28.804 30.875-41.738 60.865-30.188 77.475 4.78 6.873 13.266 10.727 24.366 11.817a11.076 10.895 0 0010.45 7.35 11.085 10.904 0 0010.694-8.117c7.941-1.14 16.555-3.154 25.652-6.013 10.14 33.362 26.25 54.936 44.398 54.936 18.223 0 34.396-21.75 44.527-55.344 33.983 10.522 61.356 9.493 71.546-5.369 6.572-9.58 5.02-23.53-2.963-39.477zm-.317-110.226c10.276 14.778-2.199 42.103-29.254 70.5-8.504-8.801-18.292-17.645-29.175-26.237-1.446-17.066-4.169-32.957-7.905-47.058 31.663-10.604 57.11-10.47 66.334 2.795zm-79.446 112.257a335.658 330.177 0 01-27.438 16.64 328.27 322.911 0 01-35.996-20.79 344.06 338.444 0 01-15.254-10.735 325.157 325.157 0 01-1.327-29.416c0-6.202.18-12.297.51-18.266a336.902 331.402 0 0123.787-17.567 335.465 329.988 0 0127.595-16.727 342.327 336.738 0 0119.874 12.218 333.823 328.373 0 0126.25 19.29c.435 6.852.678 13.876.678 21.05 0 11.046-.542 21.764-1.555 31.988a340.283 334.727 0 01-17.124 12.315zm16.638-7.893c-1.639 14.311-4.214 27.579-7.547 39.313-10.164-3.121-21.023-7.38-32.25-12.705a350.351 344.631 0 0039.797-26.608zm-54.192 29.768c-11.014 5.447-21.716 9.886-31.782 13.224-3.488-11.388-6.237-24.35-8.074-38.413a349.726 344.016 0 0012.999 9.059 344.496 338.872 0 0026.857 16.13zm-50.909-44.336a292.376 287.602 0 01-17.793-15.544 266.807 262.451 0 0117.707-16.946 341.088 341.088 0 00-.355 15.39c0 5.794.163 11.492.441 17.1zm9.873-52.365c1.45-15.343 3.968-29.59 7.34-42.2 10.972 3.965 22.584 9.12 34.466 15.408a346.722 341.061 0 00-41.806 26.792zm53.792-23.787c12.264-6.445 24.22-11.676 35.444-15.59 3.298 13.066 5.704 27.78 6.978 43.577a349.267 343.565 0 00-42.422-27.987zm46.227 36.11c9.568 8.027 18.101 16.182 25.4 24.21a289.582 284.854 0 01-25.477 22.69 348.754 343.06 0 00.077-46.9zm-52.097-109.677c5.618 0 11.01 2.468 16.042 6.948a11.067 10.886 0 00-3.164 7.625 11.112 10.93 0 0011.111 10.93 10.963 10.784 0 004.943-1.189c3.94 7.404 7.443 16.267 10.382 26.302-13.316 4.364-27.592 10.473-42.206 18.212-12.735-6.634-25.204-12.047-37.009-16.16 8.972-31.91 23.498-52.668 39.901-52.668zm-112.955 56.28c9.013-13.149 33.906-13.612 65.06-3.632-4.391 15.235-7.574 32.764-9.168 51.742a302.018 297.087 0 00-25.542 22.848c-27.678-28.45-40.606-56-30.35-70.958zm39.835 158.265a11.097 10.916 0 00-19.55-1.994c-5.123-1.699-9.165-4.41-11.826-8.236-9.517-13.685.477-38.136 23.497-64.235a304.625 299.652 0 0023.954 20.975c1.52 17.94 4.447 34.588 8.483 49.217-8.922 2.416-17.183 3.85-24.558 4.273zm73.12 41.22c-14.821 0-28.105-16.955-37.151-43.761 11.115-4.078 22.783-9.301 34.68-15.6 13.517 7.042 26.739 12.723 39.178 16.92-9.032 26.049-22.129 42.44-36.707 42.44zm102.612-56.475c-8.327 12.142-30.2 13.45-58.03 5.724 3.34-13.376 5.787-28.267 7.124-44.175 10.225-8.173 19.476-16.564 27.595-24.93 5.864 6.62 10.866 13.128 14.91 19.38a11.023 10.843 0 00-2.815 7.205 11.112 10.93 0 0011.112 10.93c.311 0 .604-.064.91-.09 3.703 10.411 3.689 19.4-.806 25.956z"/>
	<g>
		<g>
			<path fill="#4267b2" stroke="#4267b2" stroke-width="5.194" stroke-miterlimit="10" paint-order="stroke fill markers" d="M1281.953 473.953h-23.67q-15.47 0-21.133-.254h0l-2.452 5.833q-1.098 2.452-2.028 5.157h0q-1.945 5.24-5.41 5.24h0q-1.607 0-2.621-1.014t-1.014-2.113h0q0-1.86 1.606-4.142h0q2.536-3.55 4.987-9.299h0q-7.27-.676-7.27-4.226t4.142-3.55h0q2.536 0 5.918.845h0l42.182-102.455L1333.011 489h-44.042l-7.016-15.047zm-23.923-51.735l-18.175 44.888q8.115.676 14.54.676h24.768l-21.133-45.564z" />
		</g>
	</g>	
</svg>