<svg xmlns="http://www.w3.org/2000/svg" width="100%" height="100%" viewBox="1153 300 241 357">
  <path fill="#4267b2" d="M1386.297 475.25a11.07 10.89 0 003.191-7.655 11.112 10.93 0 00-11.111-10.93c-1.141 0-2.22.219-3.257.534-4.714-6.465-10.264-13.087-16.566-19.753 28.81-30.873 41.744-60.868 30.194-77.479-10.244-14.734-37.448-15.634-71.165-5.034-3.072-10.114-6.7-19.132-10.762-26.806a11.04 10.86 0 004.143-8.453 11.112 10.93 0 00-11.112-10.93c-2.05 0-3.947.586-5.597 1.536-6.495-6.61-13.606-10.28-21.068-10.28-18.222 0-34.395 21.75-44.529 55.347-33.98-10.525-61.356-9.496-71.546 5.366-11.44 16.687 1.692 46.592 30.703 77.278-28.804 30.875-41.738 60.865-30.188 77.475 4.78 6.873 13.266 10.727 24.366 11.817a11.076 10.895 0 0010.45 7.35 11.085 10.904 0 0010.694-8.117c7.941-1.14 16.555-3.154 25.652-6.013 10.14 33.362 26.25 54.936 44.398 54.936 18.223 0 34.396-21.75 44.527-55.344 33.983 10.522 61.356 9.493 71.546-5.369 6.572-9.58 5.02-23.53-2.963-39.477zm-.317-110.226c10.276 14.778-2.199 42.103-29.254 70.5-8.504-8.801-18.292-17.645-29.175-26.237-1.446-17.066-4.169-32.957-7.905-47.058 31.663-10.604 57.11-10.47 66.334 2.795zm-79.446 112.257a335.658 330.177 0 01-27.438 16.64 328.27 322.911 0 01-35.996-20.79 344.06 338.444 0 01-15.254-10.735 325.157 325.157 0 01-1.327-29.416c0-6.202.18-12.297.51-18.266a336.902 331.402 0 0123.787-17.567 335.465 329.988 0 0127.595-16.727 342.327 336.738 0 0119.874 12.218 333.823 328.373 0 0126.25 19.29c.435 6.852.678 13.876.678 21.05 0 11.046-.542 21.764-1.555 31.988a340.283 334.727 0 01-17.124 12.315zm16.638-7.893c-1.639 14.311-4.214 27.579-7.547 39.313-10.164-3.121-21.023-7.38-32.25-12.705a350.351 344.631 0 0039.797-26.608zm-54.192 29.768c-11.014 5.447-21.716 9.886-31.782 13.224-3.488-11.388-6.237-24.35-8.074-38.413a349.726 344.016 0 0012.999 9.059 344.496 338.872 0 0026.857 16.13zm-50.909-44.336a292.376 287.602 0 01-17.793-15.544 266.807 262.451 0 0117.707-16.946 341.088 341.088 0 00-.355 15.39c0 5.794.163 11.492.441 17.1zm9.873-52.365c1.45-15.343 3.968-29.59 7.34-42.2 10.972 3.965 22.584 9.12 34.466 15.408a346.722 341.061 0 00-41.806 26.792zm53.792-23.787c12.264-6.445 24.22-11.676 35.444-15.59 3.298 13.066 5.704 27.78 6.978 43.577a349.267 343.565 0 00-42.422-27.987zm46.227 36.11c9.568 8.027 18.101 16.182 25.4 24.21a289.582 284.854 0 01-25.477 22.69 348.754 343.06 0 00.077-46.9zm-52.097-109.677c5.618 0 11.01 2.468 16.042 6.948a11.067 10.886 0 00-3.164 7.625 11.112 10.93 0 0011.111 10.93 10.963 10.784 0 004.943-1.189c3.94 7.404 7.443 16.267 10.382 26.302-13.316 4.364-27.592 10.473-42.206 18.212-12.735-6.634-25.204-12.047-37.009-16.16 8.972-31.91 23.498-52.668 39.901-52.668zm-112.955 56.28c9.013-13.149 33.906-13.612 65.06-3.632-4.391 15.235-7.574 32.764-9.168 51.742a302.018 297.087 0 00-25.542 22.848c-27.678-28.45-40.606-56-30.35-70.958zm39.835 158.265a11.097 10.916 0 00-19.55-1.994c-5.123-1.699-9.165-4.41-11.826-8.236-9.517-13.685.477-38.136 23.497-64.235a304.625 299.652 0 0023.954 20.975c1.52 17.94 4.447 34.588 8.483 49.217-8.922 2.416-17.183 3.85-24.558 4.273zm73.12 41.22c-14.821 0-28.105-16.955-37.151-43.761 11.115-4.078 22.783-9.301 34.68-15.6 13.517 7.042 26.739 12.723 39.178 16.92-9.032 26.049-22.129 42.44-36.707 42.44zm102.612-56.475c-8.327 12.142-30.2 13.45-58.03 5.724 3.34-13.376 5.787-28.267 7.124-44.175 10.225-8.173 19.476-16.564 27.595-24.93 5.864 6.62 10.866 13.128 14.91 19.38a11.023 10.843 0 00-2.815 7.205 11.112 10.93 0 0011.112 10.93c.311 0 .604-.064.91-.09 3.703 10.411 3.689 19.4-.806 25.956z"/>
  <path fill="#4267b2" stroke="#4267b2" stroke-width="5.194" stroke-miterlimit="10" paint-order="stroke fill markers" d="M1281.953 473.953h-23.67q-15.47 0-21.133-.254h0l-2.452 5.833q-1.098 2.452-2.028 5.157h0q-1.945 5.24-5.41 5.24h0q-1.607 0-2.621-1.014t-1.014-2.113h0q0-1.86 1.606-4.142h0q2.536-3.55 4.987-9.299h0q-7.27-.676-7.27-4.226t4.142-3.55h0q2.536 0 5.918.845h0l42.182-102.455L1333.011 489h-44.042l-7.016-15.047zm-23.923-51.735l-18.175 44.888q8.115.676 14.54.676h24.768l-21.133-45.564z"/>
  <path stroke-miterlimit="10" d="M1194.14 622.618h-6.36q-1.02-2.7-1.92-5.31-.9-2.61-1.86-5.31h0-18.84l-3.78 10.62h-6.06q2.4-6.6 4.5-12.21 2.1-5.61 4.11-10.65 2.01-5.04 3.99-9.63 1.98-4.59 4.14-9.09h5.34q2.16 4.5 4.14 9.09 1.98 4.59 3.99 9.63 2.01 5.04 4.11 10.65 2.1 5.61 4.5 12.21zm-27.3-15.42h15.48q-1.92-5.22-3.81-10.11-1.89-4.89-3.93-9.39h0q-2.1 4.5-3.99 9.39-1.89 4.89-3.75 10.11zm51.18 13.62v-1.32q-.72.48-2.79 1.23-2.07.75-4.83.75h0q-2.82 0-5.31-.9-2.49-.9-4.35-2.79-1.86-1.89-2.94-4.71-1.08-2.82-1.08-6.72h0q0-3.42 1.02-6.27 1.02-2.85 2.97-4.92 1.95-2.07 4.77-3.24 2.82-1.17 6.36-1.17h0q3.9 0 6.81.57 2.91.57 4.89 1.05h0v27.84q0 7.2-3.72 10.44-3.72 3.24-11.28 3.24h0q-2.94 0-5.55-.48t-4.53-1.14h0l1.02-4.86q1.68.66 4.11 1.17 2.43.51 5.07.51h0q4.98 0 7.17-1.98 2.19-1.98 2.19-6.3zm-.06-6.24v-18.24q-.84-.24-2.25-.45-1.41-.21-3.81-.21h0q-4.5 0-6.93 2.94-2.43 2.94-2.43 7.8h0q0 2.7.69 4.62t1.86 3.18q1.17 1.26 2.7 1.86 1.53.6 3.15.6h0q2.22 0 4.08-.63 1.86-.63 2.94-1.47zm25.74 4.02h0q1.98 0 3.51-.09 1.53-.09 2.55-.33h0v-9.3q-.6-.3-1.95-.51-1.35-.21-3.27-.21h0q-1.26 0-2.67.18t-2.58.75q-1.17.57-1.95 1.56-.78.99-.78 2.61h0q0 3 1.92 4.17t5.22 1.17zm-.48-27.96h0q3.36 0 5.67.87t3.72 2.46q1.41 1.59 2.01 3.78.6 2.19.6 4.83h0v19.5q-.72.12-2.01.33-1.29.21-2.91.39-1.62.18-3.51.33-1.89.15-3.75.15h0q-2.64 0-4.86-.54t-3.84-1.71q-1.62-1.17-2.52-3.09-.9-1.92-.9-4.62h0q0-2.58 1.05-4.44 1.05-1.86 2.85-3t4.2-1.68q2.4-.54 5.04-.54h0q.84 0 1.74.09t1.71.24q.81.15 1.41.27.6.12.84.18h0v-1.56q0-1.38-.3-2.73t-1.08-2.4q-.78-1.05-2.13-1.68-1.35-.63-3.51-.63h0q-2.76 0-4.83.39-2.07.39-3.09.81h0l-.66-4.62q1.08-.48 3.6-.93 2.52-.45 5.46-.45zm41.4 27.12v-19.74q-1.02-.84-2.94-1.62-1.92-.78-4.2-.78h0q-2.4 0-4.11.87-1.71.87-2.79 2.4-1.08 1.53-1.56 3.63-.48 2.1-.48 4.5h0q0 5.46 2.7 8.43 2.7 2.97 7.2 2.97h0q2.28 0 3.81-.21 1.53-.21 2.37-.45zm0-24.96v-15.78l5.58-.96v45.66q-1.92.54-4.92 1.08t-6.9.54h0q-3.6 0-6.48-1.14-2.88-1.14-4.92-3.24-2.04-2.1-3.15-5.13-1.11-3.03-1.11-6.81h0q0-3.6.93-6.6.93-3 2.73-5.16 1.8-2.16 4.41-3.36 2.61-1.2 5.97-1.2h0q2.7 0 4.77.72 2.07.72 3.09 1.38zm42.72 14.22h0q0 3.72-1.08 6.72-1.08 3-3.03 5.16-1.95 2.16-4.65 3.33t-5.88 1.17h0q-3.18 0-5.88-1.17-2.7-1.17-4.65-3.33-1.95-2.16-3.03-5.16-1.08-3-1.08-6.72h0q0-3.66 1.08-6.69 1.08-3.03 3.03-5.19 1.95-2.16 4.65-3.33t5.88-1.17h0q3.18 0 5.88 1.17 2.7 1.17 4.65 3.33 1.95 2.16 3.03 5.19 1.08 3.03 1.08 6.69zm-5.82 0h0q0-5.28-2.37-8.37-2.37-3.09-6.45-3.09h0q-4.08 0-6.45 3.09t-2.37 8.37h0q0 5.28 2.37 8.37 2.37 3.09 6.45 3.09h0q4.08 0 6.45-3.09t2.37-8.37z" fill="var(--text-color)" paint-order="stroke fill markers"/>
  <path stroke-miterlimit="10" d="M1354.74 611.014h0q0 2.78-.864 4.832-.865 2.053-2.44 3.397-1.574 1.343-3.766 2.006-2.192.664-4.817.664h0q-1.296 0-2.856-.108-1.56-.108-2.825-.417h0V600.64q1.266-.308 2.825-.416 1.56-.108 2.856-.108h0q2.625 0 4.817.663 2.192.664 3.767 2.007 1.574 1.343 2.439 3.396.864 2.054.864 4.832zm-11.64 8.275h0q4.26 0 6.36-2.177 2.1-2.176 2.1-6.098h0q0-3.92-2.1-6.097-2.1-2.177-6.36-2.177h0q-1.266 0-1.96.03-.695.032-.973.063h0v16.363q.278.031.973.062.694.03 1.96.03zm15.006-5.558h0q0-2.13.617-3.72.618-1.59 1.636-2.64 1.02-1.05 2.347-1.574 1.328-.525 2.717-.525h0q3.242 0 4.97 2.022 1.73 2.022 1.73 6.16h0v.478q0 .293-.031.54h0-10.992q.186 2.501 1.452 3.798 1.265 1.297 3.952 1.297h0q1.512 0 2.547-.263 1.034-.262 1.559-.51h0l.4 2.41q-.523.277-1.836.586-1.312.31-2.98.31h0q-2.1 0-3.627-.634-1.528-.633-2.516-1.745-.988-1.11-1.467-2.64-.478-1.528-.478-3.35zm3.056-1.574h7.966q.03-1.945-.973-3.196-1.003-1.25-2.763-1.25h0q-.988 0-1.744.386-.757.386-1.282 1.003-.525.618-.818 1.42-.293.803-.386 1.637zm24.67-6.484h2.963q-1.204 4.508-2.825 8.645-1.62 4.137-3.134 7.41h0-2.593q-1.513-3.273-3.134-7.41-1.62-4.137-2.825-8.645h3.088q.37 1.513.88 3.226.509 1.714 1.08 3.397.57 1.682 1.158 3.257.587 1.575 1.112 2.81h0q.524-1.235 1.11-2.81.588-1.575 1.159-3.257.57-1.683 1.08-3.397.51-1.713.88-3.226h0z" fill="#4267b2" stroke="#4267b2" stroke-width=".926" paint-order="stroke fill markers"/>
</svg>